<svg width="173.2" height="200" xmlns="http://www.w3.org/2000/svg">

 <g>
  <title>background</title>
  <rect fill="none" id="canvas_background" height="602" width="802" y="-1" x="-1"/>
 </g>
 <g>
  <title>Layer 1</title>
  <path id="svg_9" d="m9.35132,141.67679c-0.0501,-43.79537 -0.10017,-87.59076 -0.15027,-131.38613c45.22735,0.50336 90.64652,-1.19245 135.72072,1.29256c21.98021,5.67603 18.81256,41.00997 18.45561,67.40168c-0.96421,19.90259 12.84232,59.3571 -23.018,65.28746c-17.87829,0.0007 -17.94865,5.55653 -16.12379,15.6067c2.11772,15.05642 -4.03021,48.7847 -33.40004,27.40648l-81.48424,-45.60874l0.00001,-0.00001zm138.4175,-14.3167c0.07267,-39.36644 -0.53353,-72.95168 -3.53404,-98.88853c-26.65945,-8.82237 -62.68377,-4.5289 -92.84745,-4.66297c-11.85727,4.19576 28.1274,18.12773 36.60776,23.53357c32.19453,11.6234 41.79998,32.76168 36.24059,56.65106c0,9.29286 0,18.58575 0,27.87862c5.93696,-0.00523 18.21963,-2.14533 23.53315,-4.51177l-0.00001,0.00002z" stroke-opacity="null" stroke-width="NaN" stroke="#FFFFFF" fill="#3d044f"/>
 </g>
</svg>